HIERARCHY
ROOT Hips
{
	OFFSET 0.00000 0.00000 0.00000
	CHANNELS 6 Xposition Yposition Zposition Zrotation Yrotation Xrotation 
	JOINT LHipJoint
	{
		OFFSET 0 0 0
		CHANNELS 3 Zrotation Yrotation Xrotation
		JOINT LeftUpLeg
		{
			OFFSET 1.62964 -1.40469 0.78906
			CHANNELS 3 Zrotation Yrotation Xrotation
			JOINT LeftLeg
			{
				OFFSET 2.29640 -6.30932 0.00000
				CHANNELS 3 Zrotation Yrotation Xrotation
				JOINT LeftFoot
				{
					OFFSET 2.29451 -6.30412 0.00000
					CHANNELS 3 Zrotation Yrotation Xrotation
					JOINT LeftToeBase
					{
						OFFSET 0.03611 -0.09921 1.56387
						CHANNELS 3 Zrotation Yrotation Xrotation
						End Site
						{
							OFFSET 0.00000 -0.00000 0.80291
						}
					}
				}
			}
		}
	}
	JOINT RHipJoint
	{
		OFFSET 0 0 0
		CHANNELS 3 Zrotation Yrotation Xrotation
		JOINT RightUpLeg
		{
			OFFSET -1.73712 -1.40469 0.78906
			CHANNELS 3 Zrotation Yrotation Xrotation
			JOINT RightLeg
			{
				OFFSET -2.28137 -6.26801 0.00000
				CHANNELS 3 Zrotation Yrotation Xrotation
				JOINT RightFoot
				{
					OFFSET -2.28681 -6.28298 0.00000
					CHANNELS 3 Zrotation Yrotation Xrotation
					JOINT RightToeBase
					{
						OFFSET -0.15927 -0.43759 1.61103
						CHANNELS 3 Zrotation Yrotation Xrotation
						End Site
						{
							OFFSET -0.00000 -0.00000 0.84630
						}
					}
				}
			}
		}
	}
	JOINT LowerBack
	{
		OFFSET 0 0 0
		CHANNELS 3 Zrotation Yrotation Xrotation
		JOINT Spine
		{
			OFFSET -0.04227 2.04338 -0.00225
			CHANNELS 3 Zrotation Yrotation Xrotation
			JOINT Spine1
			{
				OFFSET -0.02148 2.04482 -0.04273
				CHANNELS 3 Zrotation Yrotation Xrotation
				JOINT Neck
				{
					OFFSET 0 0 0
					CHANNELS 3 Zrotation Yrotation Xrotation
					JOINT Neck1
					{
						OFFSET 0.09180 1.44629 0.19359
						CHANNELS 3 Zrotation Yrotation Xrotation
						JOINT Head
						{
							OFFSET 0.00887 1.40645 0.14750
							CHANNELS 3 Zrotation Yrotation Xrotation
							End Site
							{
								OFFSET -0.00669 1.50671 0.03707
							}
						}
					}
				}
				JOINT LeftShoulder
				{
					OFFSET 0 0 0
					CHANNELS 3 Zrotation Yrotation Xrotation
					JOINT LeftArm
					{
						OFFSET 2.17674 1.86763 -0.06520
						CHANNELS 3 Zrotation Yrotation Xrotation
						JOINT LeftForeArm
						{
							OFFSET 4.65776 -0.00000 0.00000
							CHANNELS 3 Zrotation Yrotation Xrotation
							JOINT LeftHand
							{
								OFFSET 3.55539 -0.00000 0.00000
								CHANNELS 3 Zrotation Yrotation Xrotation
								JOINT LeftFingerBase
								{
									OFFSET 0 0 0
									CHANNELS 3 Zrotation Yrotation Xrotation
									JOINT LeftHandIndex1
									{
										OFFSET 0.70726 -0.00000 0.00000
										CHANNELS 3 Zrotation Yrotation Xrotation
										End Site
										{
											OFFSET 0.57022 -0.00000 0.00000
										}
									}
								}
								JOINT LThumb
								{
									OFFSET 0 0 0
									CHANNELS 3 Zrotation Yrotation Xrotation
									End Site
									{
										OFFSET 0.57892 -0.00000 0.57892
									}
								}
							}
						}
					}
				}
				JOINT RightShoulder
				{
					OFFSET 0 0 0
					CHANNELS 3 Zrotation Yrotation Xrotation
					JOINT RightArm
					{
						OFFSET -2.80694 1.55459 -0.32496
						CHANNELS 3 Zrotation Yrotation Xrotation
						JOINT RightForeArm
						{
							OFFSET -4.71925 -0.00000 -0.00000
							CHANNELS 3 Zrotation Yrotation Xrotation
							JOINT RightHand
							{
								OFFSET -3.56990 -0.00000 0.00000
								CHANNELS 3 Zrotation Yrotation Xrotation
								JOINT RightFingerBase
								{
									OFFSET 0 0 0
									CHANNELS 3 Zrotation Yrotation Xrotation
									JOINT RightHandIndex1
									{
										OFFSET -0.50776 -0.00000 0.00000
										CHANNELS 3 Zrotation Yrotation Xrotation
										End Site
										{
											OFFSET -0.40937 -0.00000 0.00000
										}
									}
								}
								JOINT RThumb
								{
									OFFSET 0 0 0
									CHANNELS 3 Zrotation Yrotation Xrotation
									End Site
									{
										OFFSET -0.41562 -0.00000 0.41562
									}
								}
							}
						}
					}
				}
			}
		}
	}
}
MOTION
Frames: 10
Frame Time: 0.2
0.00 0.00 0.00 0 0 0 0 0 0 -21 0 0 0 0 0 0 0 0 0 0 0 0 0 0 21 0 0 0 0 0 0 0 0 0 0 0 0 0 0 0 0 0 0 0 0 0 0 -16 0 0 21 0 0 11 0 0 0 -8 0 0 0 0 0 0 0 0 0 0 0 0 0 0 0 0 0 0 0 0 8 0 0 0 0 0 0 0 0 0 0 0 0 0 0 0 0 0
0.00 0.00 0.00 180.3150 -0.8911 -161.5870 0.0000 0.0000 0.0000 -17.8405 -14.7751 -12.4420 0.2346 3.1173 8.6056 0.2710 -0.6193 -9.6325 4.7342 -13.0781 -39.6616 0.0000 0.0000 0.0000 19.7697 12.1849 -12.1216 -0.2266 -3.0639 8.4567 -1.4008 0.4685 -22.2414 -2.5048 9.8466 -28.4812 -4.2858 -1.4018 -23.7400 -0.5030 -0.8860 -0.0928 1.5535 -0.7880 13.3231 -4.3409 -3.1807 1.4276 8.3797 -3.2640 -10.3614 3.6995 -1.5680 -3.4239 0.0000 0.0000 0.0000 -84.6097 -0.3974 2.3946 5.2609 -9.0239 -0.4154 -0.0000 -0.0000 24.0332 20.1446 -13.6162 -4.9357 -7.1250 0.0000 -0.0000 -4.9632 15.5492 3.4643 0.0000 0.0000 0.0000 91.3672 -4.2948 2.1669 -12.7440 20.9109 -2.3611 0.0000 0.0000 4.6622 -17.3753 -50.9104 13.6510 7.1250 -0.0000 -0.0000 55.8014 -77.0793 -44.2682
0.00 0.00 0.00 180.9130 -1.6757 -152.4520 0.0000 0.0000 0.0000 -11.2946 -23.4496 -29.6190 1.1819 6.8996 19.4182 0.7434 -0.4261 -16.1554 3.8241 -11.9226 -35.4587 0.0000 0.0000 0.0000 16.5646 19.0998 -28.3666 -0.9738 -6.2822 17.6053 -1.8568 -1.3445 -26.2779 -2.6942 10.1827 -29.5703 -2.1966 -1.2603 -15.1093 0.2103 -1.3475 1.0065 1.1562 -0.7855 9.6548 -2.2823 -2.4883 -0.5848 6.8205 -0.9782 -18.5266 2.5076 -0.1127 -5.3991 -0.0000 0.0000 0.0000 -71.1684 13.9603 36.1694 16.3120 -25.9418 -3.7814 -0.0000 0.0000 -1.6867 21.7986 -14.6391 -5.7717 -7.1250 0.0000 -0.0000 -3.8791 14.2928 2.8079 -0.0000 0.0000 0.0000 84.2164 -14.9202 5.4117 -12.1980 20.1009 -2.1699 0.0000 0.0000 8.7952 -9.9617 -47.4109 7.3680 7.1250 -0.0000 -0.0000 50.2063 -72.4402 -35.0700
0.00 0.00 0.00 180.6420 -1.6541 -145.0300 0.0000 0.0000 0.0000 -4.8184 -25.8308 -49.8717 4.1038 12.2972 36.7917 1.4203 -3.3462 -21.6867 4.6383 -12.9645 -39.2356 0.0000 0.0000 0.0000 11.3330 22.7907 -46.8235 -3.3571 -11.2519 33.1340 -2.7092 -0.4178 -31.3442 -2.8329 10.4196 -30.3464 -1.9517 -1.3144 -11.4943 0.3579 -1.5462 0.5124 1.2073 -0.8497 7.0629 -1.6003 -3.3909 -1.4801 5.8164 -1.5613 -22.4371 2.1136 -0.1032 -6.4810 -0.0000 0.0000 0.0000 -67.8303 22.2338 42.4423 20.0611 -30.7159 -5.5625 -0.0000 0.0000 -5.9715 21.3470 -14.1563 -5.4600 -7.1250 0.0000 -0.0000 -4.1626 14.8550 2.9642 -0.0000 0.0000 0.0000 83.1840 -21.4155 5.5161 -13.0522 21.3637 -2.4723 0.0000 0.0000 6.1705 -10.0817 -48.4071 7.5742 7.1250 -0.0000 -0.0000 52.8185 -73.0428 -37.7629
0.00 0.00 0.00 180.7520 -0.5129 -139.4960 0.0000 0.0000 0.0000 -0.7994 -24.2484 -67.7041 8.5680 16.5215 54.5837 2.0069 -7.3239 -25.4628 4.2881 -12.5342 -37.6489 0.0000 0.0000 0.0000 7.3041 23.8061 -64.2236 -7.5675 -15.7917 50.9894 -3.9413 3.5151 -36.8723 -2.6964 10.1866 -29.5831 -2.3219 -1.0028 -9.4229 0.2880 -1.1098 0.6531 1.4469 -0.6334 6.0272 -0.6684 -4.7865 -0.5986 5.7947 -2.5680 -27.3542 2.0479 -0.3508 -8.2584 0.0000 -0.0000 0.0000 -68.2543 25.6646 42.3882 21.4104 -32.3043 -6.2678 -0.0000 0.0000 -7.2762 22.1730 -15.3050 -6.1399 -7.1250 0.0000 -0.0000 -3.6627 13.5410 2.7090 0.0000 -0.0000 0.0000 83.4851 -21.9620 2.2946 -12.0885 19.9372 -2.1324 0.0000 0.0000 9.7819 -10.1009 -49.4035 7.7034 7.1250 -0.0000 -0.0000 55.7028 -73.5664 -40.6736
0.00 0.00 0.00 180.8780 0.2096 -138.5210 0.0000 0.0000 0.0000 0.9930 -22.9893 -78.7217 14.1981 19.1730 72.8086 2.5674 -10.7081 -28.8537 3.5054 -11.4715 -33.8869 0.0000 0.0000 0.0000 5.1418 24.7458 -74.5651 -12.8335 -18.7212 68.6076 -5.2581 6.2369 -42.4432 -2.7543 10.2863 -29.9088 -2.6946 -0.6744 -5.1944 0.1882 -0.7252 1.0045 1.6448 -0.4240 3.9891 -0.6633 -5.3722 -0.1964 6.6616 -2.6797 -29.7803 2.3764 -0.2836 -9.1678 0.0000 0.0000 0.0000 -72.6663 20.6318 34.0539 18.1715 -28.3762 -4.6305 -0.0000 0.0000 -3.6976 24.2025 -15.7897 -6.9729 -7.1250 0.0000 -0.0000 -2.3316 12.7655 1.7603 0.0000 0.0000 0.0000 84.9461 -15.8634 -6.4238 -9.1798 15.4466 -1.2476 0.0000 0.0000 20.1217 -12.7374 -47.8414 9.5124 7.1250 -0.0000 -0.0000 48.9638 -73.7032 -35.2895
0.00 0.00 0.00 179.8810 2.7514 -138.8160 0.0000 0.0000 0.0000 -1.8298 -24.5196 -75.5443 16.5283 19.7085 79.8020 2.4994 -12.5206 -28.5529 1.4440 -7.5966 -21.4954 0.0000 0.0000 0.0000 3.1800 27.5553 -73.2565 -15.5119 -19.5100 76.7739 -5.1171 1.5979 -42.7005 -3.6466 11.6746 -34.5905 -2.5794 -1.0052 -10.0208 -1.0752 -0.8421 -1.7624 0.2295 -0.3679 3.8072 0.1419 -4.5329 -0.4782 4.7747 -2.8646 -25.3203 1.5844 -0.6844 -7.6184 0.0000 -0.0000 0.0000 -75.8071 1.1457 36.2584 26.0458 -37.2539 -8.9154 -0.0000 0.0000 -6.9183 30.2573 -13.3794 -7.6877 -7.1250 0.0000 -0.0000 1.9680 14.5903 -1.4097 0.0000 -0.0000 0.0000 83.7904 -4.5291 34.2014 -34.2797 44.2909 -14.3080 0.0000 -0.0000 -7.1539 -20.9717 -51.7508 16.7525 7.1250 -0.0000 -0.0000 57.4950 -78.8915 -47.5237
0.00 0.00 0.00 178.2710 3.2322 -149.6820 0.0000 0.0000 0.0000 -14.8703 -17.4466 -44.7552 8.0860 16.1821 52.8717 0.3042 -4.3295 -9.8304 5.2384 -13.6473 -41.8427 0.0000 0.0000 0.0000 12.4531 20.0181 -42.0480 -7.2071 -15.5038 49.6533 -1.6693 1.6349 -23.9720 -4.2027 12.4254 -37.2539 -3.3175 -1.5815 -11.4623 -1.6696 -1.3756 -1.6333 -0.0794 -0.6251 4.7592 0.7558 -2.6777 -1.2164 2.3251 -2.3775 -14.8278 0.7076 -0.9052 -4.6715 0.0000 0.0000 0.0000 -71.0641 1.0922 46.4580 34.0515 -44.1228 -14.1489 -0.0000 -0.0000 1.5136 32.5159 -16.8401 -10.4631 -7.1250 0.0000 -0.0000 3.0507 10.2563 -2.4624 0.0000 0.0000 0.0000 81.5098 -6.8466 40.9887 -56.4346 55.2825 -31.3919 0.0000 -0.0000 -10.8689 -19.7183 -47.2907 14.7546 7.1250 -0.0000 -0.0000 40.7288 -76.0292 -30.7012
0.00 0.00 0.00 177.7470 2.1639 -150.6800 0.0000 0.0000 0.0000 -16.3562 -14.9920 -36.4229 4.4415 12.7258 38.3504 0.1320 1.7571 6.4750 4.5468 -12.8545 -38.8262 0.0000 0.0000 0.0000 13.8056 15.3784 -33.2091 -3.6664 -11.7028 34.6885 -0.1727 0.1177 -7.8080 -4.1090 12.3040 -36.8161 -3.4980 -2.2070 -15.8714 -1.5387 -1.8514 -1.9360 -0.0396 -0.8236 6.9001 0.4208 -2.0382 -1.4976 2.2415 -2.0433 -10.4068 0.6831 -0.8829 -3.0394 -0.0000 -0.0000 0.0000 -70.6996 1.1345 47.7851 35.0517 -44.8490 -14.8498 -0.0000 0.0000 -0.6023 33.2077 -16.1842 -10.3397 -7.1250 0.0000 -0.0000 3.5920 10.8788 -2.8553 -0.0000 -0.0000 0.0000 81.4232 -7.6514 41.0448 -56.8075 55.3974 -31.6986 0.0000 -0.0000 -13.8506 -20.3982 -48.9092 15.6561 7.1250 -0.0000 -0.0000 45.6856 -77.2947 -35.8060
0.00 0.00 0.00 177.6990 0.7294 -150.4750 0.0000 0.0000 0.0000 -15.9078 -14.8034 -30.2034 1.8635 8.5757 24.4769 1.5002 12.9452 22.4084 5.0477 -13.4373 -41.0282 0.0000 0.0000 0.0000 13.9452 14.4277 -25.3790 -1.1053 -6.6799 18.7705 -0.3879 -8.8783 11.8810 -3.6952 11.7434 -34.8302 -3.7082 -2.8993 -20.2085 -0.8467 -2.3974 -2.5948 0.5710 -1.0275 8.6119 0.2834 -1.7568 -2.9379 2.4215 -2.0208 -5.7352 0.7003 -0.9426 -1.2512 0.0000 0.0000 0.0000 -71.0381 2.0434 49.0364 36.5557 -45.8916 -15.9202 -0.0000 0.0000 -4.3283 32.0847 -15.2693 -9.3752 -7.1250 0.0000 -0.0000 2.9746 12.1388 -2.2857 0.0000 0.0000 0.0000 80.5426 -10.0973 40.6617 -57.0434 55.4692 -31.8929 0.0000 -0.0000 -15.2784 -19.2083 -49.9292 14.9285 7.1250 -0.0000 -0.0000 50.6115 -77.3599 -40.0399
